<?xml version="1.0" encoding="utf-8"?>
<!-- Generator: Adobe Illustrator 23.0.0, SVG Export Plug-In . SVG Version: 6.00 Build 0)  -->
<svg version="1.1" id="Layer_1" xmlns="http://www.w3.org/2000/svg" xmlns:xlink="http://www.w3.org/1999/xlink" x="0px" y="0px"
	 viewBox="0 0 1040 861.4" style="enable-background:new 0 0 1040 861.4;" xml:space="preserve">
<style type="text/css">
	.st0{stroke:#1D1D1B;stroke-width:17;stroke-miterlimit:10;}
</style>
<path id="Mail" class="st0" d="M845,130.7H195c-41.4,0-75,33.6-75,75v450c0,41.4,33.6,75,75,75H845c41.4,0,75-33.6,75-75v-450
	C920,164.3,886.5,130.7,845,130.7z M895,644.6L658.6,408.1L895,257.4V644.6z M195,155.7H845c27.6,0,50,22.4,50,50v22.1L550.8,447.1
	c-18.6,11.9-42.4,11.5-60.6-0.9L145,211.5v-5.9C145,178.1,167.4,155.7,195,155.7z M145,241.7l239.8,163L145,644.6V241.7z M845,705.7
	H195c-20.6,0-38.3-12.5-46-30.3l256.5-256.5l70.7,48c13.6,9.2,29.3,13.9,45,13.9c14.9,0,29.9-4.2,43.1-12.6l73-46.5L891,675.3
	C883.3,693.2,865.6,705.7,845,705.7z"/>
</svg>
